<?xml version="1.0" encoding="utf-8"?>
<!-- Generator: Adobe Illustrator 25.4.1, SVG Export Plug-In . SVG Version: 6.00 Build 0)  -->
<svg version="1.1" id="b3df86d2-2022-47c6-a781-bb5144daf06b"
	 xmlns="http://www.w3.org/2000/svg" xmlns:xlink="http://www.w3.org/1999/xlink" x="0px" y="0px" viewBox="0 0 802 590.9"
	 style="enable-background:new 0 0 802 590.9;" xml:space="preserve">
<style type="text/css">
	.st0{fill:#E6E6E6;}
	.st1{fill:#6C63FF;}
	.st2{fill:#CCCCCC;}
	.st3{fill:#ED738A;}
	.st4{fill:#00B0FF;}
	.st5{opacity:0.2;enable-background:new    ;}
	.st6{fill:#2F2E41;}
	.st7{fill:#A0616A;}
	.st8{fill:#5B62A9;}
	.st9{fill:#575A89;}
	.st10{fill:#3F3D56;}
	.st11{fill:#FFFFFF;}
	.st12{fill:#B3B3B3;}
	.st13{fill:#D0CDE1;}
</style>
<rect x="464.9" y="218.8" class="st0" width="337.1" height="9.9"/>
<rect x="492.8" y="136.1" class="st0" width="85.4" height="85.4"/>
<rect x="509.9" y="153.2" class="st1" width="51.2" height="51.2"/>
<rect x="684.3" y="136.1" class="st0" width="21.6" height="85.4"/>
<rect x="684.3" y="149.6" class="st2" width="21.6" height="9.9"/>
<rect x="684.3" y="192.7" class="st2" width="21.6" height="9.9"/>
<rect x="651" y="136.1" class="st0" width="21.6" height="85.4"/>
<rect x="651" y="149.6" class="st2" width="21.6" height="9.9"/>
<rect x="651" y="192.7" class="st2" width="21.6" height="9.9"/>
<rect x="722.9" y="136.1" transform="matrix(0.8962 -0.4437 0.4437 0.8962 -3.16 344.1008)" class="st0" width="21.6" height="85.4"/>
<rect x="712.1" y="152.1" transform="matrix(0.8962 -0.4437 0.4437 0.8962 5.3734 337.0641)" class="st2" width="21.6" height="9.9"/>
<rect x="731.3" y="190.8" transform="matrix(0.8962 -0.4437 0.4437 0.8962 -9.7971 349.5738)" class="st2" width="21.6" height="9.9"/>
<polygon class="st2" points="524.7,170.4 535.6,189.2 546.4,208 524.7,208 503,208 513.8,189.2 "/>
<polygon class="st2" points="543.6,174 554.4,192.8 565.3,211.6 543.6,211.6 521.8,211.6 532.7,192.8 "/>
<circle class="st3" cx="551.2" cy="162.2" r="6.3"/>
<rect x="464.9" y="83.1" class="st0" width="337.1" height="9.9"/>
<rect x="688.8" y="0.4" class="st0" width="85.4" height="85.4"/>
<rect x="705.8" y="17.4" class="st1" width="51.2" height="51.2"/>
<rect x="561.1" y="0.4" class="st0" width="21.6" height="85.4"/>
<rect x="561.1" y="13.8" class="st2" width="21.6" height="9.9"/>
<rect x="561.1" y="57" class="st2" width="21.6" height="9.9"/>
<rect x="594.4" y="0.4" class="st0" width="21.6" height="85.4"/>
<rect x="594.4" y="13.8" class="st2" width="21.6" height="9.9"/>
<rect x="594.4" y="57" class="st2" width="21.6" height="9.9"/>
<rect x="490.5" y="32.3" transform="matrix(0.4437 -0.8962 0.8962 0.4437 258.0549 501.821)" class="st0" width="85.4" height="21.6"/>
<rect x="539.1" y="10.5" transform="matrix(0.4437 -0.8962 0.8962 0.4437 283.5405 499.3712)" class="st2" width="9.9" height="21.6"/>
<rect x="519.9" y="49.2" transform="matrix(0.4437 -0.8962 0.8962 0.4437 238.2328 503.7264)" class="st2" width="9.9" height="21.6"/>
<polygon class="st2" points="742.2,34.6 731.4,53.5 720.5,72.3 742.2,72.3 764,72.3 753.1,53.5 "/>
<polygon class="st2" points="723.4,38.2 712.5,57 701.6,75.9 723.4,75.9 745.1,75.9 734.2,57 "/>
<circle class="st3" cx="715.7" cy="26.4" r="6.3"/>
<rect x="464.9" y="354.6" class="st0" width="337.1" height="9.9"/>
<rect x="688.8" y="271.8" class="st0" width="85.4" height="85.4"/>
<rect x="705.8" y="288.9" class="st1" width="51.2" height="51.2"/>
<rect x="561.1" y="271.8" class="st0" width="21.6" height="85.4"/>
<rect x="561.1" y="285.3" class="st2" width="21.6" height="9.9"/>
<rect x="561.1" y="328.5" class="st2" width="21.6" height="9.9"/>
<rect x="594.4" y="271.8" class="st0" width="21.6" height="85.4"/>
<rect x="594.4" y="285.3" class="st2" width="21.6" height="9.9"/>
<rect x="594.4" y="328.5" class="st2" width="21.6" height="9.9"/>
<rect x="490.5" y="303.8" transform="matrix(0.4437 -0.8962 0.8962 0.4437 14.7464 652.8563)" class="st0" width="85.4" height="21.6"/>
<rect x="539.1" y="282" transform="matrix(0.4437 -0.8962 0.8962 0.4437 40.232 650.4065)" class="st2" width="9.9" height="21.6"/>
<rect x="519.9" y="320.7" transform="matrix(0.4437 -0.8962 0.8962 0.4437 -5.0757 654.7617)" class="st2" width="9.9" height="21.6"/>
<polygon class="st2" points="742.2,306.1 731.4,324.9 720.5,343.8 742.2,343.8 764,343.8 753.1,324.9 "/>
<polygon class="st2" points="723.4,309.7 712.5,328.5 701.6,347.4 723.4,347.4 745.1,347.4 734.2,328.5 "/>
<circle class="st3" cx="715.7" cy="297.9" r="6.3"/>
<ellipse class="st0" cx="397.1" cy="562.7" rx="397.1" ry="28.2"/>
<path class="st4" d="M707.4,578.5c-64.8-11.5-135.6-9.6-209.8,0c33.9-28.6,63.1-57.2,29.2-85.7c66,13.6,75.3,12.2,148.8,0
	C658.5,521.3,690.3,549.9,707.4,578.5z"/>
<path class="st5" d="M707.4,578.5c-64.8-11.5-135.6-9.6-209.8,0c33.9-28.6,63.1-57.2,29.2-85.7c66,13.6,75.3,12.2,148.8,0
	C658.5,521.3,690.3,549.9,707.4,578.5z"/>
<path class="st4" d="M691.6,566.3c-55-9.2-115.2-7.7-178.3,0c28.8-22.8,53.6-45.6,24.8-68.4c56.1,10.9,64,9.8,126.4,0
	C650,520.7,677.1,543.5,691.6,566.3z"/>
<circle class="st6" cx="670.6" cy="500.2" r="29.3"/>
<polygon class="st7" points="537.6,466.2 557.9,469.6 568.1,499 538.7,517 504.9,466.2 536.5,466.2 "/>
<circle class="st7" cx="595.1" cy="464" r="47.4"/>
<path class="st8" d="M333.4,291.4c0,0-115.1,12.4-135.4,10.2s-29.3-4.5-29.3-4.5s-13.5,18.1-6.8,25.9c3.8,4.6,8.4,8.4,13.5,11.3
	c0,0,12.4-3.4,21.4,0s100.4,18.1,116.2,4.5S333.4,291.4,333.4,291.4z"/>
<path class="st8" d="M341.3,543c0,0-75.6-21.4-89.1-116.2v-9c0,0-15,26.2-20.3,31.6c-6.2,6.2-28.2,62.1-27.1,67.7
	c1.1,5.6,0,7.9,0,7.9l-32.7-3.4v-10.2c0,0,17.5-52.5,18.6-64.9s43.4-98.7,43.4-98.7s15.8-32.7,42.9,0c27.1,32.7,29.3,55.3,29.3,55.3
	l35,67.7V543z"/>
<path class="st6" d="M172.1,293.6l-36.1-12.4c0,0-33.8-24.8-25.9,0s44,79,54.2,73.3s22.4-19.6,19.6-21.7S163,316.2,172.1,293.6z"/>
<path class="st6" d="M176.4,504.7l-29.1,14.2c0,0-35.2,5.4-15.6,15.6s73.9,21,76.6,11.5s1.6-25.2-1.2-24.8S184.5,523.7,176.4,504.7z
	"/>
<path class="st9" d="M326.6,468.5c0,0-14.7,63.2,10.2,76.7s198.6,15.8,212.1-9c13.5-24.8,6.8-24.8,6.8-24.8l-36.1-40.6l29.3-2.3
	c0,0,0-9-10.2-10.2s-41.7-12.4-68.8-4.5S427,438,427,438L326.6,468.5z"/>
<polygon class="st10" points="307.4,271.1 288.3,376 420.3,360.2 444,265.4 "/>
<polygon class="st11" points="311.4,275 295.6,368.7 415.7,354.6 438.9,269.4 "/>
<polygon class="st12" points="292.8,377.1 288.3,376 286,380.5 322.1,480.9 325.5,479.6 326.6,473 "/>
<polygon class="st13" points="288.3,374.9 324.4,479.8 460.9,459.5 420.3,360.2 "/>
<polygon class="st10" points="306.3,371.5 306.3,377.1 406.7,365.8 405.6,360.2 "/>
<polygon class="st10" points="308.6,382.8 324.4,426.8 427,414.4 409,372.6 "/>
<path class="st7" d="M437.2,444.8l-3.4-9c0,0-25.9-45.1-39.5-36.1s28.2,53,28.2,53h13.5L437.2,444.8z"/>
<path class="st7" d="M351.4,451.6l-3.4-13.5c0,0-9-41.7,6.8-39.5s20.3,41.7,20.3,41.7l-1.1,9L351.4,451.6z"/>
<path class="st9" d="M378.5,445.9c0,0-29.3-4.5-30.5,2.3s-6.8,108.3,21.4,111.7s168.1,18.1,153.4-16.9s-37.2-30.5-37.2-30.5
	l-95.9,10.2L378.5,445.9z"/>
<polygon class="st9" points="467.1,458.9 437.2,438 417.4,453.3 442.3,480.4 "/>
<polygon class="st5" points="387,479.2 391.5,522.1 469.3,517.6 401.6,516.5 "/>
<circle class="st6" cx="618.5" cy="472.6" r="56.4"/>
<polygon class="st4" points="328.3,307.7 398.3,305.3 405,279.5 332.8,281.7 "/>
<polygon class="st0" points="310.3,322.4 416.3,319 417.4,314.5 311.4,318.2 "/>
<polygon class="st0" points="308,333.7 414.1,330.3 415.2,325.8 309.1,329.5 "/>
<polygon class="st0" points="306.9,342.7 412.9,339.3 414.1,334.8 308,338.5 "/>
</svg>
