<?xml version="1.0" encoding="utf-8"?>
<!-- Generator: Adobe Illustrator 25.4.1, SVG Export Plug-In . SVG Version: 6.00 Build 0)  -->
<svg version="1.1" id="b799fbe1-7cb7-4635-8884-b814a9e7e215"
	 xmlns="http://www.w3.org/2000/svg" xmlns:xlink="http://www.w3.org/1999/xlink" x="0px" y="0px" viewBox="0 0 640.7 577.2"
	 style="enable-background:new 0 0 640.7 577.2;" xml:space="preserve">
<style type="text/css">
	.st0{fill:#CCCCCC;}
	.st1{fill:#FFFFFF;}
	.st2{fill:#F9D27C;}
	.st3{fill:#2F2E41;}
	.st4{fill:#6C63FF;}
	.st5{fill:#3F3D56;}
	.st6{fill:#FF6584;}
	.st7{fill:#00B0FF;}
</style>
<path class="st0" d="M158.7,146.4c-11-32.9-45-51.2-67.4-43.7s-38.5,42.6-27.5,75.5c10.2,30.5,41.1,48.1,62.3,44.9
	c-0.2,0.3-0.3,0.6-0.3,0.9l-0.6,5.4c-0.2,1.3,0.8,2.6,2.1,2.7c0.4,0,0.8,0,1.1-0.1l10.9-3.9c1.3-0.5,1.9-1.9,1.5-3.1
	c-0.1-0.4-0.3-0.7-0.6-0.9l-3.9-3.8c-0.1-0.1-0.3-0.2-0.5-0.3C154.8,209.7,169,177,158.7,146.4z"/>
<path class="st1" d="M118.9,122.2c19,9.8,27,32.8,18.2,52.3c-0.9,2.2,2.5,3.3,3.5,1.1c9.2-21.1,0.7-45.7-19.6-56.4
	C118.8,118,116.8,121.1,118.9,122.2z"/>
<path class="st0" d="M604.7,98.4c-11-32.9-45-51.2-67.4-43.7s-38.5,42.6-27.5,75.5c10.2,30.5,41.1,48.1,62.3,44.9
	c-0.2,0.3-0.3,0.6-0.3,0.9l-0.6,5.4c-0.2,1.3,0.8,2.6,2.1,2.7c0.4,0,0.8,0,1.1-0.1l10.9-3.9c1.3-0.5,1.9-1.9,1.5-3.1
	c-0.1-0.4-0.3-0.7-0.6-0.9l-3.9-3.8c-0.1-0.1-0.3-0.2-0.5-0.3C600.8,161.7,615,129,604.7,98.4z"/>
<path class="st1" d="M564.9,74.2c19,9.8,27,32.8,18.2,52.3c-0.9,2.2,2.5,3.3,3.5,1.1c9.2-21.1,0.7-45.7-19.6-56.4
	C564.8,70,562.8,73.1,564.9,74.2z"/>
<path class="st0" d="M345.7,45.4c-11-32.9-45-51.2-67.4-43.7s-38.5,42.6-27.5,75.5c10.2,30.5,41.1,48.1,62.3,44.9
	c-0.2,0.3-0.3,0.6-0.3,0.9l-0.6,5.4c-0.2,1.3,0.8,2.6,2.1,2.7c0.4,0,0.8,0,1.1-0.1l10.9-3.9c1.3-0.5,1.9-1.9,1.5-3.1
	c-0.1-0.4-0.3-0.7-0.6-0.9l-3.9-3.8c-0.1-0.1-0.3-0.2-0.5-0.3C341.8,108.7,356,76,345.7,45.4z"/>
<path class="st1" d="M305.9,21.2c19,9.8,27,32.8,18.2,52.3c-0.9,2.2,2.5,3.3,3.5,1.1c9.2-21.1,0.7-45.7-19.6-56.4
	C305.8,17,303.8,20.1,305.9,21.2z"/>
<circle class="st2" cx="290.5" cy="201.2" r="2.6"/>
<circle class="st2" cx="284.9" cy="304" r="5.2"/>
<circle class="st2" cx="198.1" cy="286.2" r="3"/>
<circle class="st2" cx="243.6" cy="236.9" r="3.2"/>
<circle class="st2" cx="403.3" cy="427.4" r="2.6"/>
<circle class="st2" cx="317.3" cy="370.9" r="5.2"/>
<circle class="st2" cx="376.3" cy="304.9" r="3"/>
<circle class="st2" cx="396" cy="369" r="3.2"/>
<ellipse transform="matrix(0.7667 -0.642 0.642 0.7667 -205.7184 479.5081)" class="st3" cx="557" cy="522.8" rx="6.8" ry="21.5"/>
<circle class="st3" cx="511.2" cy="515.4" r="43.1"/>
<rect x="516.3" y="549.2" class="st3" width="13.1" height="23.4"/>
<rect x="490.1" y="549.2" class="st3" width="13.1" height="23.4"/>
<ellipse class="st3" cx="518.5" cy="572.9" rx="10.9" ry="4.1"/>
<ellipse class="st3" cx="492.3" cy="572.3" rx="10.9" ry="4.1"/>
<path class="st4" d="M497.6,461.2c3.8-15.5,20.8-24.6,37.9-20.4s27.8,20.2,24,35.7s-16.6,15.5-33.7,11.3S493.8,476.7,497.6,461.2z"
	/>
<ellipse transform="matrix(0.4285 -0.9035 0.9035 0.4285 -183.1902 701.1047)" class="st3" cx="462.6" cy="495.4" rx="6.8" ry="21.5"/>
<circle class="st1" cx="504.7" cy="506.3" r="14.4"/>
<circle class="st5" cx="498.8" cy="501.1" r="4.8"/>
<path class="st6" d="M513.7,536.2c0.9,5.2-2.5,10.2-7.7,11.1s-10.2-2.5-11.1-7.7l0,0l0,0c-0.9-5.2,3.1-7,8.3-8
	S512.8,531,513.7,536.2z"/>
<ellipse transform="matrix(0.357 -0.9341 0.9341 0.357 -354.0708 451.2762)" class="st3" cx="150.8" cy="482.8" rx="21.5" ry="6.8"/>
<circle class="st3" cx="111" cy="515.4" r="43.1"/>
<rect x="91.3" y="549.2" class="st3" width="13.1" height="23.4"/>
<rect x="117.5" y="549.2" class="st3" width="13.1" height="23.4"/>
<ellipse class="st3" cx="102.2" cy="572.9" rx="10.9" ry="4.1"/>
<ellipse class="st3" cx="128.4" cy="572.3" rx="10.9" ry="4.1"/>
<circle class="st1" cx="112" cy="504.4" r="14.7"/>
<circle class="st5" cx="112" cy="504.4" r="4.9"/>
<path class="st4" d="M69.2,475.3c-3.5-15.6,7.6-31.3,24.8-35.1s33.9,5.7,37.4,21.2s-7.9,21.3-25.1,25.2S72.7,490.9,69.2,475.3z"/>
<ellipse transform="matrix(0.4285 -0.9035 0.9035 0.4285 -411.8913 339.5154)" class="st3" cx="62.5" cy="495.4" rx="6.8" ry="21.5"/>
<path class="st6" d="M89.8,530.9c0,4.2,10.9,12.5,22.9,12.5s23.3-11.9,23.3-16.1s-11.3,0.8-23.3,0.8S89.8,526.7,89.8,530.9z"/>
<circle class="st3" cx="316.7" cy="474.4" r="43.1"/>
<rect x="297.1" y="508.2" class="st3" width="13.1" height="23.4"/>
<rect x="323.2" y="508.2" class="st3" width="13.1" height="23.4"/>
<ellipse class="st3" cx="308" cy="531.9" rx="10.9" ry="4.1"/>
<ellipse class="st3" cx="334.1" cy="531.3" rx="10.9" ry="4.1"/>
<path class="st7" d="M274.9,434.3c-3.5-15.6,7.6-31.3,24.8-35.1s33.9,5.7,37.4,21.2s-7.9,21.3-25.1,25.2S278.4,449.9,274.9,434.3z"
	/>
<ellipse transform="matrix(0.7068 -0.7074 0.7074 0.7068 -213.5951 385.0803)" class="st3" cx="357.8" cy="450.2" rx="23.9" ry="7.5"/>
<ellipse transform="matrix(0.7074 -0.7068 0.7068 0.7074 -242.7928 319.9901)" class="st3" cx="265.1" cy="453.2" rx="7.5" ry="23.9"/>
<path class="st6" d="M578.5,201c-1.4-44.2-31.7-79-67.6-77.9c-79.9,2.4-81.8,148.8-4.7,159.3l-1.6,13l23.8-0.8l-2.5-12.8
	C557,275,579.8,241.1,578.5,201z"/>
<path class="st1" d="M471.2,225.5l-9,0.3c-3.5-16.8-4.1-34-1.7-51l9-0.3C466.3,192.3,466.8,209.3,471.2,225.5z"/>
<rect x="502.7" y="282.1" transform="matrix(0.9995 -3.235869e-02 3.235869e-02 0.9995 -8.9545 16.8527)" class="st5" width="27" height="6"/>
<polygon class="st5" points="451.2,511.3 448.5,510 515.3,283.4 518,284.7 "/>
<path class="st7" d="M633.8,238.4c16.3-41.1,2.5-85.1-30.9-98.3c-74.2-29.7-134.4,103.8-67.9,144.2l-6.7,11.2l22.1,8.8l2.9-12.8
	C584.5,297.6,619,275.6,633.8,238.4z"/>
<path class="st1" d="M525.7,218l-8.4-3.3c3.5-16.8,9.8-32.8,18.8-47.4l8.4,3.3C534.4,185.5,528.1,201.3,525.7,218z"/>
<rect x="540.1" y="277.1" transform="matrix(0.3693 -0.9293 0.9293 0.3693 72.5247 687.9872)" class="st5" width="6" height="27"/>
<polygon class="st5" points="450.7,505.3 448.1,503.8 541.4,291 544,292.4 "/>
<path class="st7" d="M126.8,203.9c-17.7-40.5-58.6-61.7-91.5-47.4c-73.3,31.7-21,168.5,54.5,149.8l3.3,12.7l21.8-9.5l-7-11
	C134.1,280.6,142.8,240.6,126.8,203.9z"/>
<path class="st1" d="M36.2,266.3l-8.3,3.6c-9.5-14.3-16.4-30.1-20.4-46.8l8.3-3.6C19.3,237.2,26.1,252.8,36.2,266.3z"/>
<rect x="86.5" y="302" transform="matrix(0.9167 -0.3995 0.3995 0.9167 -113.541 65.3452)" class="st5" width="27" height="6"/>
<path class="st5" d="M168.4,511.9L168.4,511.9c-0.8,0.2-1.6-0.3-1.8-1.1l-65.2-206.6l2.9-0.7L169.5,510
	C169.7,510.8,169.2,511.7,168.4,511.9C168.4,511.9,168.4,511.9,168.4,511.9z"/>
<path class="st0" d="M185.8,577.2h-157c-0.6,0-1-0.4-1-1s0.4-1,1-1h157c0.6,0,1,0.4,1,1S186.4,577.2,185.8,577.2z"/>
<path class="st0" d="M584.8,577.2h-157c-0.6,0-1-0.4-1-1s0.4-1,1-1h157c0.6,0,1,0.4,1,1S585.4,577.2,584.8,577.2z"/>
<path class="st0" d="M397.8,536.2h-157c-0.6,0-1-0.4-1-1s0.4-1,1-1h157c0.6,0,1,0.4,1,1S398.4,536.2,397.8,536.2z"/>
<circle class="st1" cx="314.9" cy="468.2" r="14.7"/>
<circle class="st5" cx="314.9" cy="468.2" r="4.9"/>
<path class="st6" d="M326.6,495.5c0.9,5.2-2.5,10.2-7.7,11.1s-10.2-2.5-11.1-7.7l0,0l0,0l0,0c-0.9-5.2,3.1-7,8.3-8
	S325.6,490.3,326.6,495.5z"/>
</svg>
