<?xml version="1.0" encoding="utf-8"?>
<!-- Generator: Adobe Illustrator 25.4.1, SVG Export Plug-In . SVG Version: 6.00 Build 0)  -->
<svg version="1.1" id="e8ff1d32-e56b-43e4-bec6-a62c88b24b37"
	 xmlns="http://www.w3.org/2000/svg" xmlns:xlink="http://www.w3.org/1999/xlink" x="0px" y="0px" viewBox="0 0 822 694.9"
	 style="enable-background:new 0 0 822 694.9;" xml:space="preserve">
<style type="text/css">
	.st0{fill:#43C0FD;}
	.st1{fill:#3F3D56;}
	.st2{fill:#F0F0F0;}
	.st3{fill:#3F3E55;}
	.st4{fill:#FFB6B6;}
	.st5{fill:#5B62A9;}
	.st6{fill:#6E6AF0;}
	.st7{fill:#ED738A;}
</style>
<path class="st0" d="M709.6,617.1l-12.7,11.7l10.1-17c-8-14.5-21-27-21-27s-27.1,25.9-27.1,46.3s12.1,27.5,27.1,27.5
	c15,0,27.1-7.1,27.1-27.5C712.9,626.3,711.7,621.5,709.6,617.1z"/>
<path class="st0" d="M693.6,629.5v1c-0.1,11.7-2,20.8-5.9,27.2c-0.1,0.1-0.1,0.2-0.2,0.3l-0.4-0.3l-0.4-0.3
	c4.3-6.9,5.8-16.7,5.9-26.9c0-0.3,0-0.7,0-1c0-4.3-0.3-8.7-0.7-12.9c0-0.3-0.1-0.7-0.1-1c-0.6-5.6-1.4-10.9-2.3-15.6
	c-0.1-0.3-0.1-0.7-0.2-1c-1.5-7.9-3-13.5-3.4-14.8c0-0.2-0.1-0.2-0.1-0.3l0.5-0.1l0,0l0.5-0.1c0,0,0.1,0.3,0.2,0.8
	c0.5,2,1.9,7.3,3.3,14.4c0.1,0.3,0.1,0.6,0.2,1c0.7,3.8,1.4,8,1.9,12.4c0.1,1.1,0.3,2.2,0.4,3.3c0,0.3,0.1,0.7,0.1,1
	C693.3,621.2,693.6,625.5,693.6,629.5z"/>
<path class="st0" d="M690.3,598.9c-0.3,0-0.7,0.1-1,0.1c-0.9,0.1-1.9,0.1-2.8,0.1c-4,0-7.9-0.9-11.5-2.6c-0.2,0.3-0.4,0.5-0.6,0.8
	c3.8,1.9,8,2.8,12.2,2.8c1,0,2-0.1,3-0.2c0.3,0,0.7-0.1,1-0.1c2.8-0.4,5.4-1.2,7.9-2.4c-0.2-0.3-0.4-0.5-0.6-0.8
	C695.4,597.8,692.9,598.6,690.3,598.9z"/>
<path class="st0" d="M692.8,615.6c-0.3,0-0.7,0-1,0c-0.1,0-0.2,0-0.3,0c-8.8,0-17-4.3-22-11.5c-0.2,0.3-0.4,0.6-0.6,0.9
	c5.2,7.3,13.7,11.6,22.6,11.6c0.1,0,0.3,0,0.4,0c0.3,0,0.7,0,1,0c5.3-0.3,10.4-2.1,14.8-5.2c-0.2-0.3-0.3-0.6-0.5-0.9
	C702.9,613.6,697.9,615.4,692.8,615.6z"/>
<path class="st0" d="M693.6,629.5c-0.3,0-0.7,0-1,0.1c-0.4,0-0.7,0-1.1,0c-11.9,0-22.5-7.9-25.8-19.4c-0.2,0.4-0.4,0.8-0.7,1.2
	c3.8,11.4,14.4,19.1,26.5,19.2c0.4,0,0.7,0,1.1,0c0.4,0,0.7,0,1.1-0.1c7-0.6,13.6-3.8,18.4-9c-0.1-0.4-0.2-0.7-0.3-1.1
	C707,625.7,700.5,628.9,693.6,629.5z"/>
<path class="st0" d="M603,176.2l0.5-10.2l2.7,11.3c9.3,2.8,19.9,2.7,19.9,2.7s0.7-22-7.7-30.6c-8.4-8.6-16.4-6.6-22.7-0.4
	c-6.3,6.1-8.5,14.1-0.1,22.7C597.9,173.7,600.3,175.2,603,176.2z"/>
<path class="st0" d="M604.7,164.4l-0.4-0.4c-4.8-4.9-7.7-9.6-8.7-13.9c0-0.1,0-0.1,0-0.2l0.3-0.1l0.3-0.1c1,4.7,4.4,9.4,8.6,13.7
	c0.1,0.1,0.3,0.3,0.4,0.4c1.8,1.8,3.7,3.5,5.6,5.1c0.1,0.1,0.3,0.3,0.5,0.4c2.5,2.1,5.1,4,7.4,5.6c0.2,0.1,0.3,0.2,0.5,0.3
	c3.9,2.7,6.8,4.4,7.5,4.8c0.1,0,0.1,0.1,0.1,0.1l-0.1,0.3v0l-0.1,0.3c0,0-0.2-0.1-0.4-0.3c-1-0.6-3.8-2.3-7.3-4.7
	c-0.2-0.1-0.3-0.2-0.5-0.3c-1.8-1.3-3.9-2.8-5.9-4.4c-0.5-0.4-1-0.8-1.5-1.2c-0.2-0.1-0.3-0.2-0.5-0.4
	C608.2,167.8,606.3,166.1,604.7,164.4z"/>
<path class="st0" d="M618.6,175.9c0.1-0.2,0.2-0.3,0.4-0.5c0.4-0.4,0.7-0.8,1.1-1.2c1.7-1.6,3.7-2.9,5.9-3.7c0-0.2,0-0.4-0.1-0.6
	c-2.4,0.8-4.5,2.1-6.3,3.8c-0.4,0.4-0.8,0.8-1.2,1.3c-0.1,0.2-0.3,0.3-0.4,0.5c-1,1.3-1.8,2.7-2.3,4.3c0.2,0,0.4,0.1,0.6,0.1
	C616.9,178.5,617.7,177.1,618.6,175.9z"/>
<path class="st0" d="M610.7,169.9c0.1-0.1,0.3-0.3,0.4-0.4c0,0,0.1-0.1,0.1-0.1c3.7-3.6,8.9-5.2,14-4.2c0-0.2-0.1-0.4-0.1-0.6
	c-5.2-0.9-10.5,0.7-14.3,4.4c-0.1,0.1-0.1,0.1-0.2,0.2c-0.1,0.1-0.3,0.3-0.4,0.4c-2.1,2.3-3.5,5.2-4.1,8.2c0.2,0.1,0.4,0.1,0.6,0.2
	C607.3,175,608.6,172.2,610.7,169.9z"/>
<path class="st0" d="M604.7,164.4c0.1-0.2,0.3-0.3,0.4-0.5c0.2-0.2,0.3-0.3,0.5-0.5c5-4.9,12.7-5.9,18.8-2.5
	c-0.1-0.3-0.1-0.5-0.2-0.8c-6.3-3.3-13.9-2.1-19,2.8c-0.2,0.2-0.3,0.3-0.5,0.5c-0.1,0.1-0.3,0.3-0.4,0.5c-2.7,3.1-4.2,7.2-4,11.3
	c0.2,0.1,0.4,0.2,0.6,0.3C600.6,171.6,602,167.5,604.7,164.4z"/>
<path class="st0" d="M216.4,251.8l0.5-10.2l2.7,11.3c9.3,2.8,19.9,2.7,19.9,2.7s0.7-22-7.7-30.6c-8.4-8.6-16.4-6.6-22.7-0.4
	c-6.3,6.1-8.5,14.1-0.1,22.7C211.3,249.3,213.7,250.8,216.4,251.8z"/>
<path class="st0" d="M218.1,240.1l-0.4-0.4c-4.8-4.9-7.7-9.6-8.7-13.9c0-0.1,0-0.1,0-0.2l0.3-0.1l0.3-0.1c1,4.7,4.4,9.4,8.6,13.7
	c0.1,0.1,0.3,0.3,0.4,0.4c1.8,1.8,3.7,3.5,5.6,5.1c0.1,0.1,0.3,0.3,0.5,0.4c2.5,2.1,5.1,4,7.4,5.6c0.2,0.1,0.3,0.2,0.5,0.3
	c3.9,2.7,6.8,4.4,7.5,4.8c0.1,0,0.1,0.1,0.1,0.1l-0.1,0.3v0l-0.1,0.3c0,0-0.2-0.1-0.4-0.3c-1-0.6-3.8-2.3-7.3-4.7
	c-0.2-0.1-0.3-0.2-0.5-0.3c-1.8-1.3-3.9-2.8-5.9-4.4c-0.5-0.4-1-0.8-1.5-1.2c-0.2-0.1-0.3-0.2-0.5-0.4
	C221.6,243.4,219.7,241.7,218.1,240.1z"/>
<path class="st0" d="M232,251.5c0.1-0.2,0.2-0.3,0.4-0.5c0.4-0.4,0.7-0.8,1.1-1.2c1.7-1.6,3.7-2.9,5.9-3.7c0-0.2,0-0.4-0.1-0.6
	c-2.4,0.8-4.5,2.1-6.3,3.8c-0.4,0.4-0.8,0.8-1.2,1.3c-0.1,0.2-0.3,0.3-0.4,0.5c-1,1.3-1.8,2.7-2.3,4.3c0.2,0,0.4,0.1,0.6,0.1
	C230.3,254.1,231.1,252.8,232,251.5z"/>
<path class="st0" d="M224.1,245.6c0.1-0.1,0.3-0.3,0.4-0.4c0,0,0.1-0.1,0.1-0.1c3.7-3.6,8.9-5.2,14-4.2c0-0.2-0.1-0.4-0.1-0.6
	c-5.2-0.9-10.5,0.7-14.3,4.4c-0.1,0.1-0.1,0.1-0.2,0.2c-0.1,0.1-0.3,0.3-0.4,0.4c-2.1,2.3-3.5,5.2-4.1,8.2c0.2,0.1,0.4,0.1,0.6,0.2
	C220.7,250.6,222,247.8,224.1,245.6z"/>
<path class="st0" d="M218.1,240.1c0.1-0.2,0.3-0.3,0.4-0.5c0.2-0.2,0.3-0.3,0.5-0.5c5-4.9,12.7-5.9,18.8-2.5
	c-0.1-0.3-0.1-0.5-0.2-0.8c-6.3-3.3-13.9-2.1-19,2.8c-0.2,0.2-0.3,0.3-0.5,0.5c-0.1,0.1-0.3,0.3-0.4,0.5c-2.7,3.1-4.2,7.2-4,11.3
	c0.2,0.1,0.4,0.2,0.6,0.3C214,247.2,215.4,243.1,218.1,240.1z"/>
<path class="st0" d="M281,122.7l0.5-10.2l2.7,11.3c9.3,2.8,19.9,2.7,19.9,2.7s0.7-22-7.7-30.6c-8.4-8.6-16.4-6.6-22.7-0.4
	c-6.3,6.1-8.5,14.1-0.1,22.7C275.8,120.2,278.3,121.7,281,122.7z"/>
<path class="st0" d="M282.6,111l-0.4-0.4c-4.8-4.9-7.7-9.6-8.7-13.9c0-0.1,0-0.1,0-0.2l0.3-0.1l0.3-0.1c1,4.7,4.4,9.4,8.6,13.7
	c0.1,0.1,0.3,0.3,0.4,0.4c1.8,1.8,3.7,3.5,5.6,5.1c0.1,0.1,0.3,0.3,0.5,0.4c2.5,2.1,5.1,4,7.4,5.6c0.2,0.1,0.3,0.2,0.5,0.3
	c3.9,2.7,6.8,4.4,7.5,4.8c0.1,0,0.1,0.1,0.1,0.1l-0.1,0.3v0l-0.1,0.3c0,0-0.2-0.1-0.4-0.3c-1-0.6-3.8-2.3-7.3-4.7
	c-0.2-0.1-0.3-0.2-0.5-0.3c-1.8-1.3-3.9-2.8-5.9-4.4c-0.5-0.4-1-0.8-1.5-1.2c-0.2-0.1-0.3-0.2-0.5-0.4
	C286.1,114.3,284.3,112.6,282.6,111z"/>
<path class="st0" d="M296.6,122.4c0.1-0.2,0.2-0.3,0.4-0.5c0.4-0.4,0.7-0.8,1.1-1.2c1.7-1.6,3.7-2.9,5.9-3.7c0-0.2,0-0.4-0.1-0.6
	c-2.4,0.8-4.5,2.1-6.3,3.8c-0.4,0.4-0.8,0.8-1.2,1.3c-0.1,0.2-0.3,0.3-0.4,0.5c-1,1.3-1.8,2.7-2.3,4.3c0.2,0,0.4,0.1,0.6,0.1
	C294.9,125,295.6,123.7,296.6,122.4z"/>
<path class="st0" d="M288.7,116.5c0.1-0.1,0.3-0.3,0.4-0.4c0,0,0.1-0.1,0.1-0.1c3.7-3.6,8.9-5.2,14-4.2c0-0.2-0.1-0.4-0.1-0.6
	c-5.2-0.9-10.5,0.7-14.3,4.4c-0.1,0.1-0.1,0.1-0.2,0.2c-0.1,0.1-0.3,0.3-0.4,0.4c-2.1,2.3-3.5,5.2-4.1,8.2c0.2,0.1,0.4,0.1,0.6,0.2
	C285.2,121.5,286.6,118.7,288.7,116.5z"/>
<path class="st0" d="M282.6,111c0.1-0.2,0.3-0.3,0.4-0.5c0.2-0.2,0.3-0.3,0.5-0.5c5-4.9,12.7-5.9,18.8-2.5c-0.1-0.3-0.1-0.5-0.2-0.8
	c-6.3-3.3-13.9-2.1-19,2.8c-0.2,0.2-0.3,0.3-0.5,0.5c-0.1,0.1-0.3,0.3-0.4,0.5c-2.7,3.1-4.2,7.2-4,11.3c0.2,0.1,0.4,0.2,0.6,0.3
	C278.5,118.1,279.9,114,282.6,111z"/>
<path class="st0" d="M133.9,585.7L111.8,606l17.6-29.4c-13.8-25.1-36.4-46.7-36.4-46.7S46,574.8,46,610.1s21,47.7,46.9,47.7
	c25.9,0,46.9-12.3,46.9-47.7C139.8,602.3,137.5,593.9,133.9,585.7z"/>
<path class="st0" d="M106.1,607.1v1.7c-0.1,20.2-3.5,36-10.2,47.2c-0.1,0.2-0.2,0.3-0.3,0.5l-0.8-0.5l-0.7-0.4
	c7.4-12,10.1-29,10.2-46.6c0-0.6,0-1.1,0-1.7c0-7.5-0.5-15-1.2-22.4c-0.1-0.6-0.1-1.1-0.2-1.7c-1-9.7-2.5-19-4-27
	c-0.1-0.6-0.2-1.1-0.3-1.7c-2.6-13.6-5.2-23.5-5.8-25.6c-0.1-0.3-0.1-0.4-0.1-0.4l0.8-0.2l0,0l0.8-0.2c0,0,0.2,0.5,0.4,1.4
	c0.9,3.4,3.3,12.7,5.7,24.9c0.1,0.6,0.2,1.1,0.3,1.7c1.2,6.5,2.4,13.8,3.4,21.5c0.2,1.9,0.5,3.8,0.6,5.7c0.1,0.6,0.1,1.2,0.2,1.7
	C105.7,592.8,106.1,600.2,106.1,607.1z"/>
<path class="st0" d="M100.4,554.2c-0.6,0.1-1.2,0.2-1.8,0.2c-1.6,0.2-3.2,0.2-4.9,0.3c-6.9,0-13.8-1.5-20-4.5
	c-0.4,0.5-0.7,0.9-1.1,1.4c6.6,3.2,13.8,4.9,21.1,4.9c1.7,0,3.5-0.1,5.2-0.3c0.6-0.1,1.2-0.1,1.8-0.2c4.8-0.7,9.4-2.1,13.8-4.2
	c-0.4-0.5-0.7-0.9-1.1-1.4C109.3,552.3,104.9,553.6,100.4,554.2z"/>
<path class="st0" d="M104.7,583.1c-0.6,0-1.2,0.1-1.8,0.1c-0.2,0-0.4,0-0.6,0c-15.2,0-29.5-7.4-38.2-19.9c-0.3,0.5-0.7,1-1,1.5
	c9.1,12.6,23.7,20.1,39.2,20.1c0.2,0,0.5,0,0.7,0c0.6,0,1.2,0,1.8-0.1c9.2-0.5,18.1-3.6,25.6-9c-0.3-0.5-0.6-1-0.8-1.5
	C122.4,579.6,113.7,582.7,104.7,583.1z"/>
<path class="st0" d="M106.1,607.1c-0.6,0.1-1.2,0.1-1.8,0.1c-0.6,0-1.3,0-1.9,0c-20.7,0-38.9-13.7-44.7-33.6
	c-0.4,0.7-0.8,1.4-1.1,2.1c6.5,19.8,25,33.2,45.9,33.2c0.6,0,1.3,0,1.9,0c0.6,0,1.2-0.1,1.8-0.1c12.2-1,23.6-6.5,31.8-15.5
	c-0.2-0.6-0.4-1.3-0.6-1.9C129.4,600.5,118.2,606.2,106.1,607.1z"/>
<ellipse transform="matrix(0.7526 -0.6585 0.6585 0.7526 -85.0475 538.9659)" class="st1" cx="674.7" cy="382.7" rx="77" ry="40.1"/>
<ellipse transform="matrix(0.6585 -0.7526 0.7526 0.6585 -229.8307 258.8093)" class="st1" cx="170.3" cy="382.7" rx="40.1" ry="77"/>
<ellipse class="st1" cx="300.3" cy="616.9" rx="77" ry="40.1"/>
<ellipse class="st1" cx="544.7" cy="616.9" rx="77" ry="40.1"/>
<path class="st1" d="M422.5,601.7c-104.2,0-189-84.8-189-189s84.8-189,189-189s189,84.8,189,189S526.7,601.7,422.5,601.7z
	 M422.5,225.4c-103.2,0-187.2,84-187.2,187.2s84,187.2,187.2,187.2s187.2-84,187.2-187.2S525.7,225.4,422.5,225.4z"/>
<path class="st2" d="M376.4,538.5c-78.9-27.1-125.5-108.5-109-190.3c-41,82.2-7.6,182.1,74.6,223.2c82.2,41,182.1,7.6,223.2-74.6
	c6.5-13.1,11.3-27,14.2-41.3C542.1,530.2,455.3,565.7,376.4,538.5z"/>
<path class="st1" d="M366.8,397.6c-9.6,0-17.4-10.1-17.4-22.6c0-12.5,7.8-22.6,17.4-22.6s17.4,10.1,17.4,22.6
	C384.2,387.4,376.4,397.6,366.8,397.6z"/>
<path class="st1" d="M471.9,397.6c-9.6,0-17.4-10.1-17.4-22.6c0-12.5,7.8-22.6,17.4-22.6c9.6,0,17.4,10.1,17.4,22.6
	C489.3,387.4,481.5,397.6,471.9,397.6z"/>
<ellipse class="st3" cx="410.5" cy="39.2" rx="16.6" ry="12"/>
<ellipse class="st3" cx="410.5" cy="25.3" rx="10.1" ry="7.3"/>
<path class="st3" d="M398.5,43.9c-5.7-5.7-7.5-13.4-4.7-18.4c-0.7,0.4-1.3,0.9-1.9,1.4c-4.7,4.7-3.2,13.7,3.3,20.2
	c6.5,6.5,15.5,7.9,20.2,3.3c0.5-0.6,1-1.2,1.4-1.9C412,51.5,404.3,49.7,398.5,43.9z"/>
<polygon class="st4" points="239.6,340.7 233.8,331 268.4,303.9 277,318.2 "/>
<path class="st5" d="M231.7,348.8l-18.8-31.2l0.4-0.2c6.7-4,15.4-1.9,19.5,4.8l0,0l11.5,19.1L231.7,348.8z"/>
<polygon class="st4" points="604,327.8 609.8,318.1 575.2,291 566.6,305.3 "/>
<path class="st5" d="M599.3,328.3l11.5-19.1l0,0c4-6.7,12.8-8.9,19.5-4.8l0.4,0.2l-18.8,31.2L599.3,328.3z"/>
<polygon class="st6" points="378,198.5 375.8,207.3 316.3,254.9 252.4,314.6 259.3,330.6 411.7,228.5 583.5,317.6 591.2,300 
	512.8,247.5 447.9,202.8 "/>
<path class="st7" d="M398,104.4l-25.7,8.4l3.5,93.5c0,0,44.7,26.8,72.2-3.6v-93.6l-15.3-4.8H398z"/>
<path class="st7" d="M442.2,115.6l5.7-6.4c0,0,15.8,5.8,14.5,23.2c-1.3,17.4-10.6,72.6-10.6,72.6l-1.8,36h-16.5l6.6-93.2
	L442.2,115.6z"/>
<path class="st7" d="M379.5,118.4l-5.7-6.4c0,0-15.8,5.8-14.5,23.2c1.3,17.4,10.6,72.6,10.6,72.6l1.8,36h16.5l-6.6-93.2L379.5,118.4
	z"/>
<circle class="st4" cx="380.1" cy="248.5" r="10.1"/>
<circle class="st4" cx="441.8" cy="248.5" r="10.1"/>
<circle class="st3" cx="410.1" cy="68.6" r="28.1"/>
<circle class="st4" cx="410.9" cy="75" r="22.6"/>
<path class="st3" d="M387.1,60.8c5.2,3.6,11.3,5.5,17.6,5.4c-2.2,1.6-4.8,2.6-7.5,3.1c8.4,1.8,17,1.8,25.4,0.1
	c1.9-0.3,3.7-0.9,5.3-1.8c1.7-0.9,2.9-2.5,3.3-4.4c0.6-3.2-1.9-6.1-4.5-8c-8-5.9-18.2-8-27.9-5.6c-3.1,0.8-6.2,2.2-8.3,4.7
	c-2,2.5-2.6,6.4-0.7,8.9L387.1,60.8z"/>
<path class="st0" d="M787.1,658.8H30.9c-0.5,0-0.9-0.4-0.9-0.9c0-0.5,0.4-0.9,0.9-0.9h756.2c0.5,0,0.9,0.4,0.9,0.9
	C788,658.4,787.6,658.8,787.1,658.8z"/>
<path class="st1" d="M393.9,486.4c0,14.3,11.6,25.8,25.8,25.8s25.8-11.6,25.8-25.8H393.9z"/>
<circle class="st2" cx="514.8" cy="432" r="22.1"/>
<circle class="st2" cx="323.9" cy="432" r="22.1"/>
</svg>
