<?xml version="1.0" encoding="utf-8"?>
<!-- Generator: Adobe Illustrator 25.4.1, SVG Export Plug-In . SVG Version: 6.00 Build 0)  -->
<svg version="1.1" id="a2fa834c-56b9-4c01-b3fb-8c1fddda4ee0"
	 xmlns="http://www.w3.org/2000/svg" xmlns:xlink="http://www.w3.org/1999/xlink" x="0px" y="0px" viewBox="0 0 963 607"
	 style="enable-background:new 0 0 963 607;" xml:space="preserve">
<style type="text/css">
	.st0{fill:#F2F2F2;}
	.st1{fill:#6C63FF;}
	.st2{fill:#3F3D56;}
	.st3{fill:#2F2E41;}
	.st4{fill:#FFB8B8;}
	.st5{opacity:0.1;enable-background:new    ;}
	.st6{fill:#D0CDE1;}
	.st7{fill:#ED738A;}
</style>
<polygon class="st0" points="239,469 0,469 0,86 550,86 "/>
<polygon class="st0" points="957.4,96.5 957.4,603.5 296.4,603.5 659.4,96.5 "/>
<ellipse transform="matrix(0.5416 -0.8406 0.8406 0.5416 -173.2229 238.3659)" class="st1" cx="132" cy="278" rx="23.7" ry="34.8"/>
<path class="st1" d="M131.9,278c0,0-0.5,9.5-1.4,25.3c-2,34.8-6.1,100.5-12,164.9c-4.8,53.1-10.9,105.3-17.9,138.8h-7.4l19.3-164.2
	l16.4-140L131.9,278z"/>
<path class="st2" d="M184.2,607H0l0.3-354C64,329,97.8,391.6,112.6,442.8c2.4,8.4,4.4,16.8,6,25.4c1.6,8.7,2.6,17.5,3.1,26.3
	l90.9-141.1C264,493.5,234.2,567.8,184.2,607z"/>
<path class="st3" d="M624.2,214.4c-7.2,21.5-18.4,41-41,41s-39.7-18.4-41-41c-1.6-28.9,17.8-41.1,41-41
	C610.6,173.5,632.8,188.9,624.2,214.4z"/>
<rect x="549.3" y="208.9" class="st3" width="67.1" height="97.8"/>
<polygon class="st4" points="529.8,417 533.2,442.6 612.4,437.5 608.2,414.5 "/>
<path class="st4" d="M567.3,266.2c0,0,10.2,28.1-9.4,32.4s3.4,23,3.4,23l30.7-1.7l21.3-6l6.8-11.9c0,0-26.4-13.6-18.7-34.9
	L567.3,266.2z"/>
<path class="st5" d="M567.3,266.2c0,0,10.2,28.1-9.4,32.4s3.4,23,3.4,23l30.7-1.7l21.3-6l6.8-11.9c0,0-26.4-13.6-18.7-34.9
	L567.3,266.2z"/>
<path class="st4" d="M626.9,377.8l1.7,64.8c0,0,6,12.8,17.9,21.3s45.2,20.4,45.2,20.4s30.7,37.5,34.9,11.9s-26.4-29-26.4-29
	s-38.3-30.7-40.9-36.6s-5.1-43.5-4.3-52S626.9,377.8,626.9,377.8z"/>
<path class="st4" d="M499.3,363.9l-6,56.2l-69.9,64.8c0,0-46.9,29-21.3,34.9c25.6,6,37.5-23.9,37.5-23.9l75.8-51.1
	c0,0,9.9-78.4,6.5-81.8S499.3,363.9,499.3,363.9z"/>
<path class="st6" d="M621.8,299.5c0,0-20.4,11.9-40.9,7.7S557,296.9,557,296.9s-26.4,4.3-29,14.5s0,25.6,0,25.6s-23,24.7-3.4,54.5
	l4.3,34.9c0,0,57.9-8.5,71.6,0s17.9,1.7,17.9,1.7l9.4-41.7l29.8-65.6c0,0,0-8.5-16.2-13.6S621.8,299.5,621.8,299.5z"/>
<path class="st6" d="M646.5,313.1l11.1,8.5c0,0,11.1,60.5,1.7,62.2s-40,6-40,0S646.5,313.1,646.5,313.1z"/>
<path class="st6" d="M534,308h-6c0,0-20.4,14.5-23.9,30.7s-12.8,33.2-5.1,34.9s30.7,8.5,34.1,6S534,308,534,308z"/>
<path class="st3" d="M675.3,607H441.6c30.2-68.5,84.8-163.5,84.8-163.5l3.4-12.8l84.7,0l2.2,11.9C616.7,442.6,649.1,532.4,675.3,607
	z"/>
<circle class="st3" cx="583.2" cy="165.8" r="16.2"/>
<path class="st3" d="M563.7,157.2c0-8.3,6.3-15.3,14.6-16.1c-0.5-0.1-1.1-0.1-1.6-0.1c-8.9,0-16.2,7.2-16.2,16.2
	c0,8.9,7.2,16.2,16.2,16.2l0,0c0.5,0,1.1,0,1.6-0.1C570,172.5,563.7,165.5,563.7,157.2z"/>
<circle class="st4" cx="584.3" cy="247.5" r="35.8"/>
<path class="st3" d="M571.3,203.1c0,0-0.3-1.9-13.6,3.1s-21.1,41.5-14.5,63c2.7,8.7,0.5,14.9-3,19.3c-13.3,16.4-8,41,11.3,49.4
	c0.5,0.2,1.1,0.5,1.7,0.7l8.3,5c0,0-10.5-13.9-5.3-31.6c4.6-15.1,5.1-31.1,1.6-46.5c-0.6-2.6-1.3-5.3-2.1-8
	c-6.6-23.1-3.4-20.5,19.7-43.6c0,0,13.2,9.9,24.8,14.9s21.5,9.9,13.2,26.4s-28.1,31.4-14.9,52.9s14.9,13.2,13.2,21.5l0,0l-1.7,8.3
	l9.9-9.9l-6.6,13.2c0,0,21.5,0,28.1-16.5l3.3,3.3c0,0,13.2-23.1-11.6-44.6c0,0-8.3-5,3.3-21.5s2.7-52.1-12.2-58.7
	S571.3,203.1,571.3,203.1z"/>
<path class="st2" d="M356.2,25.7c-32.2-2.2-64.3,4.8-92.6,20.3c-19.9,11-39.1,29.5-38,52.1c0.9,18.9,15.7,34.1,31.1,45.2
	c21.4,15.4,45.6,26.5,71.3,32.7c9.3,2.2,18.9,3.9,27.4,8.2c9,4.6,16.3,11.9,22.7,19.7c26.7,32.6,39.8,80.2,20.5,117.7
	c-9.5,18.4-25.6,32.6-42.5,44.7c-11.6,8.4-24,16.3-32.8,27.6c-6.4,8.2-10.8,17.8-12.6,28c-4.6,25.2,7.2,52.2,27.7,67.7
	s48.3,19.8,73.2,13.5"/>
<circle class="st7" cx="356" cy="26" r="26"/>
<path class="st2" d="M904.9,543.2c-2.7,23.7-10.5,45.3-20,63.8h-78.3c-6.5-22.3-10.7-48.5-7.6-75.9c1.7-14,5-27.8,9.9-41
	c19.5-53,58.5-88.5,58.5-88.5S913.5,468.4,904.9,543.2z"/>
<path class="st1" d="M847.5,607h-91.1c-8.8-11.1-16.2-23.3-22-36.2c-30.8-68.8-7.1-146.2-7.1-146.2s47.1,21.7,81.7,65.6
	c9.1,11.4,16.7,23.8,22.7,37.1C843.8,554.2,847.5,582.5,847.5,607z"/>
<ellipse transform="matrix(0.9092 -0.4164 0.4164 0.9092 -68.4594 373.1892)" class="st7" cx="821.3" cy="343.5" rx="10.1" ry="14.8"/>
<ellipse transform="matrix(0.2195 -0.9756 0.9756 0.2195 303.8836 946.4155)" class="st7" cx="743.5" cy="283.3" rx="14.8" ry="10.1"/>
<ellipse transform="matrix(0.7987 -0.6017 0.6017 0.7987 -104.0734 568.7587)" class="st7" cx="798.1" cy="439.9" rx="10.1" ry="14.8"/>
<ellipse transform="matrix(0.8885 -0.4588 0.4588 0.8885 2.9954 387.0055)" class="st7" cx="798" cy="187.3" rx="10.1" ry="14.8"/>
</svg>
