<?xml version="1.0" encoding="utf-8"?>
<!-- Generator: Adobe Illustrator 25.4.1, SVG Export Plug-In . SVG Version: 6.00 Build 0)  -->
<svg version="1.1" id="a86c84ac-c86b-458f-bb45-d629fc1b571b"
	 xmlns="http://www.w3.org/2000/svg" xmlns:xlink="http://www.w3.org/1999/xlink" x="0px" y="0px" viewBox="0 0 1083.4 818.5"
	 style="enable-background:new 0 0 1083.4 818.5;" xml:space="preserve">
<style type="text/css">
	.st0{fill:#F2F2F2;}
	.st1{fill:#6C63FF;}
	.st2{fill:#2F2E41;}
	.st3{fill:#FFB8B8;}
	.st4{opacity:0.2;enable-background:new    ;}
	.st5{fill:#3F3D56;}
	.st6{fill:#ED738A;}
</style>
<polygon class="st0" points="1076.5,634.2 732.5,770 657.2,799.7 494.5,743 355.5,694.5 344,690.5 327.1,647.7 259.8,477.4 
	226.1,391.9 215.9,366.2 208.6,347.6 192.2,306.1 165.7,239 223.6,216.2 278.9,194.4 318.6,178.7 818.7,-18.8 "/>
<path class="st1" d="M24.9,436.3c8.7-1.9,17.3,3.6,19.2,12.3c1.9,8.7-3.6,17.3-12.3,19.2c-8.7,1.9-31.8-9.6-31.8-9.6
	S16.2,438.1,24.9,436.3z"/>
<path class="st1" d="M28.8,767.1c5.7-6.8,15.9-7.8,22.7-2.1c6.8,5.7,7.8,15.9,2.1,22.7l0,0c-5.7,6.8-30.9,12-30.9,12
	S23.1,773.9,28.8,767.1z"/>
<path class="st2" d="M727.7,242.4c-26-43.9-77.3-45.9-77.3-45.9s-50-6.4-82.2,60.4c-29.9,62.3-71.2,122.4-6.6,137l11.7-36.3l7.2,39
	c9.2,0.7,18.4,0.8,27.6,0.5c69.2-2.2,135,0.7,132.9-24.2C738.1,339.9,752.6,284.6,727.7,242.4z"/>
<path class="st3" d="M621.1,334.2c8.9,19.8,14.6,43.4,18,69.6l71.8-4.5c-16.5-23.4-22-50.2-15.7-80.8L621.1,334.2z"/>
<path class="st4" d="M621.1,334.2c8.9,19.8,14.6,43.4,18,69.6l71.8-4.5c-16.5-23.4-22-50.2-15.7-80.8L621.1,334.2z"/>
<path class="st3" d="M287.9,711c0,0-37.2,19.9-18.3,36.9s43.8-22.5,43.8-22.5L287.9,711z"/>
<polygon class="st2" points="742.3,652.9 741.7,680.1 740.5,738.9 739.4,788.8 664.2,818.5 501.4,761.7 512.1,702.2 520.8,654.2 
	524.6,632.7 719.9,605.8 "/>
<path class="st5" d="M742.3,652.9l-0.6,27.2c-69.1-1.8-176.2-18.4-221-25.9l3.9-21.5l195.2-26.9L742.3,652.9z"/>
<circle class="st3" cx="655.9" cy="297.2" r="56.1"/>
<path class="st1" d="M743.7,683.2c0,0,6.2,60.6-31.2,56.1l-6.2-60.6l-33.3-35.9l-93.7-2.2l-68.7,69.6c0,0-2.1-71.8,6.2-78.5
	c8.3-6.7,27.1-22.4,27.1-22.4v-11.2l-56.2-123.4c0,0,33.3-74.1,60.4-76.3l35.4-2.2c0,0,12.5-6.7,12.5-9s-2.1-20.2,8.3-15.7
	c0,0,0.9-23,11.9-16c0,0,34.5,29.2,69.6,1.3c0,0,16.3-3.2,14.3,5.7s0,15.7,4.2,15.7c4.2,0,22.9,6.7,22.9,11.2c0,1,1.4,10.3,3.5,24.2
	v0c7.7,51,25.7,164.3,25.7,164.3S774.9,606.9,743.7,683.2z"/>
<path class="st1" d="M503.3,463.3l-15.7,11.2l-143.6,184l-76.3,60.6c0,0,42.6-6.7,33.7,29.2l262.6-150.4L503.3,463.3z"/>
<path class="st5" d="M736,405.6L736,405.6c-3,17.6-100.2,13.9-113.7,13.9s-24.7-2.2-38.2-11.2s-6.7-20.2-6.7-20.2s11.5-8.7,11.5-11
	s-2.2-20.2,9-15.7c0,0,1-23,12.8-16c0,0,39.2,31.2,77,3.3c0,0,17.6-3.2,15.4,5.7s0,15.7,4.5,15.7s24.7,6.7,24.7,11.2
	C732.3,382.3,733.8,391.6,736,405.6z"/>
<path class="st1" d="M765.3,316.8c0,0-40.4,30.7-50.6,31.2c0,0-0.5,116.1,26.4,154.6l-6.3,106.2c0,0,92.8-12.9,87.6-74.7
	c-0.1-0.6-0.1-1.2-0.2-1.8c-4.3-51.5-15.5-102.2-33.3-150.7L765.3,316.8z"/>
<polygon class="st4" points="715.8,410.9 756.2,608.8 744.4,489.8 "/>
<polygon class="st2" points="716.2,238.2 665.4,211.6 595.4,222.5 580.9,286.5 617,285.2 627,261.6 627,284.8 643.7,284.1 
	653.4,246.7 659.4,286.5 718.6,285.3 "/>
<path class="st2" d="M280.9,738.5c-34.9-19.4-56.6-46-64.5-78.9c-5.9-24.4-4.2-51.9,5-81.7c6.9-22,17.1-42.7,30.4-61.5
	c70.6-100,77-165.1,69.9-202.2c-7.8-40.6-33-57.5-33.3-57.7l1.1-1.7c0.3,0.2,26.2,17.4,34.1,58.9c4.6,23.9,2.4,51.1-6.4,81
	c-11,37.1-32.5,78.5-63.8,122.8c-13.2,18.6-23.4,39.2-30.2,60.9c-15.2,48.9-17.3,116,58.6,158.3L280.9,738.5z"/>
<path class="st2" d="M217.2,553.3c-27.5-15.3-26.7-39.6-21.2-57.3c2.4-7.8,6.1-15.2,10.8-21.8c24.7-35,27-57.8,24.5-70.7
	c-2.7-14-11.3-19.8-11.4-19.8l1.1-1.7c0.4,0.2,9.4,6.3,12.3,21.1c3.7,19.3-4.6,43.7-24.8,72.2c-4.6,6.5-8.2,13.7-10.5,21.3
	c-5.3,17-6,40.3,20.3,55L217.2,553.3z"/>
<path class="st2" d="M340.9,331.3l-1-1.7c26.3-14.7,25.6-38,20.3-55c-2.4-7.6-5.9-14.8-10.5-21.3c-20.2-28.6-28.5-52.9-24.8-72.2
	c2.9-14.9,11.9-20.9,12.3-21.1l1.1,1.7c-0.1,0.1-8.8,5.9-11.4,19.9c-2.5,12.9-0.2,35.6,24.5,70.6c4.7,6.7,8.4,14,10.8,21.8
	C367.6,291.7,368.4,316,340.9,331.3z"/>
<path class="st6" d="M399.6,231.8c-9,13.9-27.6,17.8-41.5,8.7c-13.9-9-17.8-27.6-8.7-41.5c0,0,0,0,0,0c9.1-13.9,54.6-28.8,54.6-28.8
	S408.7,217.9,399.6,231.8z"/>
<path class="st6" d="M388.6,138.8c-9,13.9-27.6,17.8-41.5,8.7c-13.9-9-17.8-27.6-8.7-41.5c0,0,0,0,0,0c9.1-13.9,54.6-28.8,54.6-28.8
	S397.7,124.9,388.6,138.8z"/>
<path class="st2" d="M340.3,479.5c-17.1,0-31-13.8-31-30.9c0-12,6.9-22.9,17.7-28c15.1-7.2,60.4,3.3,62.3,3.8l1.2,0.3l-0.5,1.1
	c-0.9,1.8-21.2,43.6-36.3,50.8l0,0C349.4,478.5,344.9,479.5,340.3,479.5z M342.8,420c-6.1,0-11.5,0.6-15,2.3
	c-14.5,6.9-20.6,24.2-13.7,38.7c6.9,14.5,24.2,20.6,38.7,13.7l0,0c13.1-6.3,31.4-41.9,34.8-48.7C382,424.8,359.6,420,342.8,420z"/>
<path class="st6" d="M279.1,204.3c12.2,11.2,13.1,30.1,2,42.4c-11.2,12.2-30.1,13.1-42.4,2c0,0,0,0,0,0
	c-12.2-11.2-19.7-58.6-19.7-58.6S266.9,193.1,279.1,204.3z"/>
<path class="st6" d="M209.1,330.3c12.2,11.2,13.1,30.1,2,42.4s-30.1,13.1-42.4,2c-12.2-11.2-19.7-58.6-19.7-58.6
	S196.9,319.1,209.1,330.3z"/>
<path class="st2" d="M287.6,348c-10,0-29.2-9.5-30-9.9l-1.1-0.6l0.8-1c0.7-0.8,16.6-20.3,25.5-22.2l0,0c9.2-2,18.3,3.9,20.3,13.1
	s-3.9,18.3-13.1,20.3l0,0C289.2,347.9,288.4,348,287.6,348z M259.6,336.8c4.7,2.3,22.8,10.5,30,9c8.2-1.8,13.3-9.8,11.6-18
	c-1.8-8.2-9.8-13.3-18-11.6C276,317.8,262.9,332.8,259.6,336.8z"/>
<path class="st1" d="M180.2,754.8c4.4-7.7,14.2-10.5,22-6.1c7.7,4.4,10.5,14.2,6.1,21.9c-4.4,7.7-28.3,17.3-28.3,17.3
	S175.8,762.6,180.2,754.8z"/>
<path class="st2" d="M127.9,583.2c-6.9-0.1-13.8-0.7-20.6-1.8l-1.2-0.2l0.5-1.2c0.4-1,9.8-24.3,17.8-28.8l0,0
	c8.2-4.7,18.7-1.8,23.3,6.5s1.8,18.7-6.5,23.3C138.2,582.7,133.2,583.2,127.9,583.2z M108.8,579.7c5.2,0.7,24.9,3.3,31.3-0.3
	c7.3-4.1,9.8-13.3,5.7-20.6s-13.3-9.8-20.6-5.7l0,0C118.8,556.7,110.8,574.9,108.8,579.7z"/>
<path class="st6" d="M737.8,259.1c8.3-10.8,23.8-12.9,34.6-4.6c10.8,8.3,12.9,23.8,4.6,34.6l0,0c-8.3,10.8-46.7,20.3-46.7,20.3
	S729.5,269.9,737.8,259.1z"/>
<path class="st3" d="M759.2,326.7c0,0,1-42.2-23.1-34.1s-2,49.2-2,49.2L759.2,326.7z"/>
</svg>
