<?xml version="1.0" encoding="utf-8"?>
<!-- Generator: Adobe Illustrator 25.4.1, SVG Export Plug-In . SVG Version: 6.00 Build 0)  -->
<svg version="1.1" id="f6dc6f51-58d1-4328-a543-5a2c5176acea"
	 xmlns="http://www.w3.org/2000/svg" xmlns:xlink="http://www.w3.org/1999/xlink" x="0px" y="0px" viewBox="0 0 922.2 747.4"
	 style="enable-background:new 0 0 922.2 747.4;" xml:space="preserve">
<style type="text/css">
	.st0{fill:#3F3D56;}
	.st1{fill:#00BFFF;}
	.st2{fill:#FFFFFF;}
	.st3{fill:#FF6584;}
	.st4{fill:#F9D27C;}
	.st5{fill:#2F2E41;}
	.st6{fill:#5B62A9;}
	.st7{fill:#FFB6B6;}
	.st8{fill:#43C0FD;}
	.st9{opacity:0.1;enable-background:new    ;}
	.st10{fill:#ED738A;}
</style>
<path class="st0" d="M894.2,428.4c50.6-123.5-67.4-313.9-274.9-392.6S-12.2,77.6,142.5,143.3c298,126.6,354.2,291.2,290.2,368.5
	C318,650.3,794.5,671.5,894.2,428.4z"/>
<polygon class="st1" points="580.6,422.5 582.5,425 579.9,427 580.5,427.7 583,425.7 584.9,428.3 585.6,427.8 583.7,425.2 
	586.3,423.3 585.8,422.6 583.2,424.5 581.3,422 "/>
<polygon class="st1" points="461.9,167.8 463.8,170.4 461.2,172.3 461.7,173 464.3,171.1 466.2,173.7 466.9,173.2 465,170.6 
	467.6,168.7 467.1,168 464.5,169.9 462.6,167.3 "/>
<polygon class="st1" points="758,305.7 759.9,308.2 757.4,310.1 757.9,310.8 760.5,308.9 762.4,311.5 763.1,311 761.2,308.4 
	763.7,306.5 763.2,305.8 760.6,307.7 758.7,305.1 "/>
<polygon class="st1" points="575.3,100.4 577.2,103 574.6,104.9 575.1,105.6 577.7,103.7 579.6,106.2 580.3,105.7 578.4,103.1 
	581,101.2 580.5,100.5 577.9,102.4 576,99.9 "/>
<polygon class="st1" points="769.6,226.5 771.5,229.1 769,231 769.5,231.7 772.1,229.8 774,232.3 774.7,231.8 772.8,229.2 
	775.3,227.3 774.8,226.6 772.2,228.5 770.3,226 "/>
<polygon class="st1" points="236.5,93.7 238.4,96.3 235.8,98.2 236.4,98.9 238.9,97 240.8,99.5 241.5,99 239.6,96.4 242.2,94.5 
	241.7,93.8 239.1,95.7 237.2,93.2 "/>
<polygon class="st1" points="741.8,456.7 743.7,459.3 741.1,461.2 741.7,461.9 744.2,460 746.2,462.5 746.9,462 744.9,459.5 
	747.5,457.5 747,456.8 744.4,458.8 742.5,456.2 "/>
<polygon class="st2" points="540.6,348.6 543.3,352.2 539.7,354.9 540.4,355.8 544,353.2 546.7,356.8 547.7,356 545,352.4 
	548.6,349.7 547.9,348.8 544.3,351.4 541.6,347.8 "/>
<circle class="st1" cx="684.5" cy="353.8" r="4"/>
<circle class="st1" cx="847.7" cy="391.7" r="4"/>
<circle class="st1" cx="511.5" cy="434.8" r="4"/>
<ellipse transform="matrix(0.4998 -0.8661 0.8661 0.4998 118.8192 677.2159)" class="st1" cx="645.7" cy="235.7" rx="4" ry="4"/>
<circle class="st1" cx="618.6" cy="314.7" r="2.6"/>
<circle class="st3" cx="353" cy="62" r="2.6"/>
<circle class="st3" cx="688.5" cy="545.6" r="2.6"/>
<circle class="st3" cx="525.1" cy="565.4" r="2.6"/>
<circle class="st1" cx="648.2" cy="453.4" r="2.6"/>
<circle class="st2" cx="588.4" cy="501.8" r="2.6"/>
<circle class="st1" cx="300.1" cy="161.3" r="4"/>
<circle class="st1" cx="551.6" cy="241.1" r="4"/>
<circle class="st4" cx="648.1" cy="177.2" r="13.2"/>
<circle class="st2" cx="447.1" cy="255.3" r="4"/>
<path class="st5" d="M143,703.3c0,0-6.8,28.5-0.6,29.8c6.2,1.2,36.6,0.8,44,2.1c7.4,1.2,22.9-0.8,22.9-6.4s-16.1-9.3-16.1-9.3
	s-22.9-12.4-23.6-13C169,705.8,143,703.3,143,703.3z"/>
<path class="st0" d="M150.3,504.4c0,0,2.2,25.2,2.2,27.4s-13.3,119.4-10.4,143.1s-0.3,31.3-0.3,35.8s24,2.8,24,2.8l26-163.9
	l-13.3-48.9L150.3,504.4z"/>
<path class="st5" d="M151.7,709.5c0,0-6.2,22.3,0,23.6c6.2,1.2,36.6-1.4,44-0.2c7.4,1.2,22.9,1.4,22.9-4.2c0-5.6-16.1-9.3-16.1-9.3
	s-22.9-12.4-23.6-13S151.7,709.5,151.7,709.5z"/>
<path class="st6" d="M144.3,468.4c0,0-8.9,21.5,1.5,32.6c10.4,11.1,22.2,33.4,22.2,34.8s-20.7,149-17.8,158.7
	c3,9.6,2.2,15.6,1.5,17.1s7.4,9.6,16.3,9.6c8.9,0,22.2-6.7,23.7-12.6s-2.2-57.1-1.5-66.7c0.7-9.6,30.3-163.9,26.6-167.6
	C213.1,470.7,144.3,468.4,144.3,468.4z"/>
<circle class="st7" cx="200" cy="274.2" r="25.2"/>
<path class="st7" d="M184.4,286.8c0,0,5.2,27.4,1.5,30.4c-3.7,3,28.2,7.4,28.2,7.4s3.7-36.3,4.4-40
	C219.2,280.9,184.4,286.8,184.4,286.8z"/>
<path class="st8" d="M218.5,322.4c0,0,4.8-26.1-31.5-18.7c0,0-33.2,27.2-31.7,52.4c1.5,25.2-11.6,98.3-10.2,103.5
	s-8.9,11.9-4.4,14.1c4.4,2.2,84.5,15.6,86.8,0c2.2-15.6-0.7-54.9,0.7-62.3c1.5-7.4,0-69.7-4.4-77.1
	C219.2,326.8,218.5,322.4,218.5,322.4z"/>
<path class="st7" d="M202.9,503.3c0,0-11.1,42.3,3,42.3s13.3-43.7,13.3-43.7L202.9,503.3z"/>
<path class="st5" d="M210.2,278.4c-0.3,2.1-3.6,3-8.4,2.6l0,0c-2-0.2-4.1-0.5-6.1-1c-3-0.7-4.7,1.9-5.8,5.6
	c-1.8,6.1-1.9,15-3.5,16.2c-11,6.1-43.6-34.7-26.9-45.3c5.9-3.8,25.9-17.8,39.8-15c13.8,2.8,8.2,20,8.2,20s0.5,2.3,1.1,5.1
	c0.8,3.6,1.4,7.3,1.7,11.1C210.3,277.9,210.3,278.2,210.2,278.4z"/>
<path class="st8" d="M211.8,329.8c0,0-25.2-1.5-27.4,35.6s-1.5,71.9-1.5,72.7s10.4,71.2,20,71.2s17.1-1.5,19.3-5.2
	c2.2-3.7-5.9-57.1-5.9-57.1s-3.7-56.4,2.2-74.1C224.4,355,225.2,332,211.8,329.8z"/>
<polyline class="st9" points="183.3,375.6 176,454.8 200.4,509.7 184.5,453.6 183.3,374.4 "/>
<polygon class="st9" points="218.6,384.1 220.5,477.5 213.8,426.8 "/>
<polygon class="st0" points="345.1,735.9 30.9,735.9 30.9,733.3 345.5,733.3 "/>
<circle class="st10" cx="443.1" cy="93.2" r="9.9"/>
<circle class="st10" cx="723.7" cy="401.6" r="9.9"/>
</svg>
